<svg xmlns="http://www.w3.org/2000/svg" width="89.739" height="61.182" viewBox="0 0 89.739 61.182">
  <g id="Group_1073" data-name="Group 1073" transform="translate(450 32.67)">
    <rect id="Rectangle_1" data-name="Rectangle 1" width="55.156" height="10.009" transform="translate(-415.417 -12.333)" fill="#ff0200"/>
    <g id="Group_7" data-name="Group 7" transform="translate(-409.352 -32.67)">
      <g id="Group_3" data-name="Group 3" transform="translate(9.064)">
        <g id="Group_1" data-name="Group 1" transform="translate(0 0)">
          <path id="Path_1" data-name="Path 1" d="M608.693,316.6c-1.124,0-2.494-.659-4.158-2a25.079,25.079,0,0,1-4.5-4.811c-4.166-5.853-2.7-9.752-1.448-11.555a4.622,4.622,0,0,1,4.325-2.082c1.343.149,3.9,1.055,5.92,5.455,2.036,4.429,2.836,10.479,2.471,12.537h0a2.824,2.824,0,0,1-1.872,2.35A2.57,2.57,0,0,1,608.693,316.6Zm-6.281-16.554a1.5,1.5,0,0,0-1.252.667c-1.063,1.537-.586,3.745,1.419,6.561a21.714,21.714,0,0,0,3.592,3.9,9.785,9.785,0,0,0,1.886,1.295,27.76,27.76,0,0,0-2.154-8.989c-.94-2.044-2.145-3.291-3.307-3.419A1.668,1.668,0,0,0,602.412,300.047Z" transform="translate(-597.276 -296.128)" fill="#ff0200"/>
        </g>
        <g id="Group_2" data-name="Group 2" transform="translate(10.943)">
          <path id="Path_2" data-name="Path 2" d="M665.046,316.6a2.57,2.57,0,0,1-.733-.1,2.825,2.825,0,0,1-1.872-2.35h0c-.364-2.058.435-8.108,2.471-12.537,2.022-4.4,4.577-5.306,5.92-5.454a4.622,4.622,0,0,1,4.325,2.082c1.247,1.8,2.717,5.7-1.449,11.555a25.078,25.078,0,0,1-4.5,4.811C667.54,315.94,666.17,316.6,665.046,316.6Zm6.282-16.554a1.655,1.655,0,0,0-.184.01c-1.162.129-2.368,1.375-3.307,3.419a27.754,27.754,0,0,0-2.154,8.989,9.792,9.792,0,0,0,1.886-1.295,21.707,21.707,0,0,0,3.592-3.9c2-2.816,2.482-5.024,1.419-6.561A1.494,1.494,0,0,0,671.327,300.046Z" transform="translate(-662.356 -296.127)" fill="#ff0200"/>
        </g>
      </g>
      <g id="Group_6" data-name="Group 6" transform="translate(0 10.62)">
        <g id="Group_4" data-name="Group 4">
          <path id="Path_3" data-name="Path 3" d="M564.691,369.948c-8.09-.129-19.256-4.726-21.319-6.862l4-.111-1.619-3.687s12.6,7.553,18.941,8.783S564.691,369.948,564.691,369.948Z" transform="translate(-543.372 -359.288)" fill="#ff0200"/>
        </g>
        <g id="Group_5" data-name="Group 5" transform="translate(18.889)">
          <path id="Path_4" data-name="Path 4" d="M658.53,369.948c8.09-.129,19.256-4.726,21.319-6.862l-4-.111,1.619-3.687s-12.6,7.553-18.941,8.783S658.53,369.948,658.53,369.948Z" transform="translate(-655.711 -359.288)" fill="#ff0200"/>
        </g>
      </g>
    </g>
    <rect id="Rectangle_2" data-name="Rectangle 2" width="47.49" height="37.907" transform="translate(-411.584 -9.394)" fill="#ff0200"/>
    <g id="Group_8" data-name="Group 8" transform="translate(-450 -4.723)">
      <path id="Path_5" data-name="Path 5" d="M307.538,470.446l.111.242h.074l.111-.242,2-8.11h3.918L309.682,476.9v10.8H305.69V476.9l-4.065-14.563h3.918Z" transform="translate(-301.625 -462.336)" fill="#fff"/>
      <path id="Path_6" data-name="Path 6" d="M387.247,513.842a5.135,5.135,0,0,1-2,4.107,4.457,4.457,0,0,1-2.809.759,4.257,4.257,0,0,1-4.176-2.485,6.535,6.535,0,0,1-.591-2.485v-9.49a5.4,5.4,0,0,1,2-4.21,4.273,4.273,0,0,1,2.772-.759,4.344,4.344,0,0,1,4.213,2.45,6.339,6.339,0,0,1,.591,2.416Zm-3.511-9.594a2.155,2.155,0,0,0-.48-1.657,1.2,1.2,0,0,0-.813-.276,1.134,1.134,0,0,0-1.146.966,2.01,2.01,0,0,0-.111.967v9.49a2.174,2.174,0,0,0,.481,1.622,1.1,1.1,0,0,0,.776.276,1.146,1.146,0,0,0,1.183-.932,2.007,2.007,0,0,0,.111-.966Z" transform="translate(-364.888 -493.067)" fill="#fff"/>
      <path id="Path_7" data-name="Path 7" d="M460,500.922h3.733V519.8H460v-1.588a2.684,2.684,0,0,0-.407.345,7.379,7.379,0,0,1-1.626,1.242,2.178,2.178,0,0,1-1,.276,2.457,2.457,0,0,1-2.143-1.277,4.683,4.683,0,0,1-.665-2.416v-15.46H457.9v14.943c0,.725.443.828.887.828a1.22,1.22,0,0,0,.887-.449A2.511,2.511,0,0,0,460,515.8Z" transform="translate(-428.516 -494.434)" fill="#fff"/>
    </g>
    <g id="Group_9" data-name="Group 9" transform="translate(-407.009 -4.947)">
      <path id="Path_8" data-name="Path 8" d="M563.965,470.387v-3.9a2.2,2.2,0,0,0-.517-1.587,1.2,1.2,0,0,0-.813-.276,1.212,1.212,0,0,0-1.183.932,2.483,2.483,0,0,0-.148.932V481.74a2.109,2.109,0,0,0,.554,1.588,1.1,1.1,0,0,0,.776.276,1.146,1.146,0,0,0,1.183-.932,2.268,2.268,0,0,0,.148-.932v-4.59h-1.589v-3.14h5.581v12.631h-2.365l-.48-1.208a4.067,4.067,0,0,1-3.1,1.484,4.233,4.233,0,0,1-2.846-.863,4.623,4.623,0,0,1-1.4-1.864,6.525,6.525,0,0,1-.443-2.761V466.487a6.5,6.5,0,0,1,.665-2.726,4.8,4.8,0,0,1,1.552-1.9,5.339,5.339,0,0,1,3.1-.863,5.213,5.213,0,0,1,3.067.863,4.907,4.907,0,0,1,1.589,1.9,6.5,6.5,0,0,1,.665,2.726v3.9Z" transform="translate(-557.307 -461)" fill="#fff"/>
      <path id="Path_9" data-name="Path 9" d="M642.4,462.642h3.733v3.485H642.4Zm0,25.365V469.13h3.733v18.877Z" transform="translate(-628.091 -462.366)" fill="#fff"/>
      <path id="Path_10" data-name="Path 10" d="M681.868,487.324V471.587h-1.885v-3.14h1.885v-.518a10.525,10.525,0,0,1,.554-3.8,3.6,3.6,0,0,1,3.733-2.312,4.112,4.112,0,0,1,1.293.138l.444.1v3c-.111-.035-.222-.035-.332-.069a5.907,5.907,0,0,0-.776-.069c-.628,0-.924.518-1.072,1.173a4.926,4.926,0,0,0-.111,1.035v1.311h1.885v3.14H685.6v15.736Z" transform="translate(-659.356 -461.683)" fill="#fff"/>
      <path id="Path_11" data-name="Path 11" d="M740.989,473.52v4.659h2.55v3.14h-2.55v9.387a8.98,8.98,0,0,0,.148,1.967c.148.621.443,1.139,1.035,1.139a7.7,7.7,0,0,0,.924-.069c.148-.035.3-.035.444-.069v3.416c-.185.035-.37.1-.554.138a8.128,8.128,0,0,1-1.442.1,3.585,3.585,0,0,1-3.733-2.347,11.311,11.311,0,0,1-.554-4v-9.663h-1.885v-3.14h1.885V473.52Z" transform="translate(-705.431 -471.415)" fill="#fff"/>
    </g>
  </g>
</svg>
