<svg xmlns="http://www.w3.org/2000/svg" xmlns:xlink="http://www.w3.org/1999/xlink" width="19.54" height="14.975" viewBox="0 0 19.54 14.975">
  <defs>
    <clipPath id="clip-path">
      <rect width="19.54" height="14.975" fill="none"/>
    </clipPath>
  </defs>
  <g id="Repeat_Grid_60" data-name="Repeat Grid 60" transform="translate(0 0)" clip-path="url(#clip-path)">
    <g transform="translate(-340.129 -745.7)">
      <path id="Path_2613" data-name="Path 2613" d="M616.187,828.067l-1.715-1.714a1.218,1.218,0,0,0-1.714,0l-8.27,8.283-3.706-3.719a1.219,1.219,0,0,0-1.715,0l-1.714,1.714a1.219,1.219,0,0,0,0,1.715l4.563,4.563,1.715,1.714a1.218,1.218,0,0,0,1.714,0l1.715-1.714,9.127-9.127a1.218,1.218,0,0,0,0-1.715Zm0,0" transform="translate(-256.871 -80.3)" fill="#25bf31"/>
    </g>
  </g>
</svg>
